<svg xmlns="http://www.w3.org/2000/svg" width="100" height="85" viewBox="0 0 28 23">
  <defs>
    <linearGradient href="#a" id="b" x1="130" x2="109" y1="180" y2="162" gradientTransform="translate(-14 -22)"
      gradientUnits="userSpaceOnUse" />
    <linearGradient id="a">
      <stop offset="0" stop-color="#d39f3e" />
      <stop offset="1" stop-color="#efe7a0" />
    </linearGradient>
  </defs>
  <g transform="translate(-91.017 -137.054)">
    <rect width="27" height="21.5" x="91.5" y="137.5" ry="4" fill="url(#b)" stroke="#860"
      paint-order="stroke fill markers" />
    <path fill="#860"
      d="m101.1 137.2-.41.314 4.027 5.261H91.277v.504h8.248v4.782h-8.427v.504h8.427v4.794h-8.152v.504h13.42l-4.11 5.371.41.315 4.116-5.375 4.113 5.375.412-.315-4.111-5.37h13.457v-.505h-8.469v-4.865h8.512v-.5h-8.512v-4.715h8.47v-.504h-13.376l4.03-5.261-.413-.315-4.113 5.374zm-1.064 6.08h10.081v10.08H100.03z" />
  </g>
</svg>
