<svg viewBox="0 0 148 48" fill="none" xmlns="http://www.w3.org/2000/svg">
  <path
    d="M137 47.3 135.6 40.3H120.1L117.7 47.3 105.3 47.3C113.2 28 119.2 13.8 123 4.5 124 2.1 125.8.8 128.5.9 130.5.9 133.8.9 138.4.9L148 47.3 137 47.3ZM123.6 30.8H133.6L129.9 13.4 123.6 30.8ZM43.5.8 56 .9 36.7 47.3 24.1 47.3C20.9 35 17.8 22.8 14.7 10.5 14 8 12.8 6.3 10.5 5.5 8.4 4.8 4.9 3.6 0 2.1V.9H20C23.4.9 25.4 2.5 26.1 6 26.7 9.4 28.4 18.2 31 32.3L43.5.8ZM73.2.9 63.3 47.3 51.4 47.3 61.3.8 73.2.9ZM97.3 0C100.9 0 105.4 1.1 107.9 2.1L105.9 11.8C103.5 10.8 99.7 9.6 96.5 9.6 91.8 9.7 88.9 11.7 88.9 13.5 88.9 16.6 93.9 18.2 99.1 21.5 105 25.4 105.8 28.8 105.7 32.6 105.6 40.3 99.1 48 85.3 48 79 47.9 76.7 47.4 71.6 45.6L73.8 35.5C79 37.7 81.2 38.4 85.7 38.4 89.8 38.4 93.3 36.7 93.3 33.8 93.3 31.8 92.1 30.8 87.5 28.2 82.9 25.7 76.5 22.2 76.6 15.1 76.7 6.1 85.2 0 97.3 0Z"
    fill="white" />
</svg>
